<?xml version="1.0" standalone="no"?>
<!DOCTYPE svg PUBLIC "-//W3C//DTD SVG 20010904//EN"
 "http://www.w3.org/TR/2001/REC-SVG-20010904/DTD/svg10.dtd">
<svg version="1.0" xmlns="http://www.w3.org/2000/svg"
 width="900.000000pt" height="900.000000pt" viewBox="0 0 900.000000 900.000000"
 preserveAspectRatio="xMidYMid meet">

<g transform="translate(0.000000,900.000000) scale(0.100000,-0.100000)"
fill="#000000" stroke="none">
<path d="M0 4500 l0 -4500 4500 0 4500 0 0 4500 0 4500 -4500 0 -4500 0 0
-4500z m5038 3885 c758 -110 1404 -395 1982 -874 141 -117 398 -373 504 -503
422 -517 698 -1088 827 -1713 88 -426 103 -945 39 -1380 -10 -70 -15 -96 -46
-250 -31 -154 -134 -496 -184 -610 -5 -11 -24 -56 -41 -100 -48 -117 -186
-383 -264 -510 -372 -601 -879 -1077 -1515 -1423 -195 -106 -546 -246 -755
-302 -16 -4 -57 -15 -90 -24 -145 -41 -364 -80 -600 -108 -155 -18 -662 -15
-820 6 -230 29 -376 57 -575 108 -113 29 -350 104 -413 131 -263 113 -403 181
-547 265 -726 425 -1309 1079 -1635 1838 -163 377 -261 760 -306 1189 -17 170
-15 616 5 790 55 482 177 901 382 1315 438 883 1189 1572 2096 1923 90 35 190
72 223 81 33 10 71 22 85 26 14 5 70 21 125 35 399 101 800 141 1203 118 117
-7 261 -19 320 -28z"/>
<path d="M3340 6770 c-193 -21 -331 -60 -467 -130 -178 -93 -280 -195 -364
-366 -77 -157 -100 -265 -108 -514 l-6 -205 -250 -3 c-137 -1 -252 -6 -255
-11 -3 -5 -3 -197 0 -428 l5 -418 250 -5 250 -5 3 -352 2 -353 480 0 480 0 2
353 3 352 355 5 355 5 3 427 2 428 -357 2 -358 3 1 96 c2 129 9 163 45 204 51
58 93 65 401 65 l268 0 0 419 c0 271 -4 422 -10 426 -16 10 -647 14 -730 5z"/>
<path d="M4387 6673 c-4 -3 -7 -611 -7 -1350 l0 -1343 483 2 482 3 7 185 c12
321 63 426 238 486 70 24 331 27 394 5 58 -20 112 -75 135 -135 26 -71 42
-221 41 -386 -1 -74 -1 -141 -1 -147 1 -10 105 -13 487 -13 l486 0 -5 358 c-7
408 -21 526 -82 707 -100 296 -312 475 -640 541 -124 25 -454 25 -610 0 -181
-28 -328 -79 -413 -143 -24 -18 -33 -21 -37 -11 -3 7 -6 290 -8 628 l-2 615
-471 3 c-259 1 -474 -1 -477 -5z"/>
<path d="M2615 3571 c-96 -26 -187 -98 -233 -186 -24 -45 -27 -61 -27 -155 l0
-105 51 -105 c104 -215 227 -391 396 -566 180 -185 374 -330 596 -442 282
-144 461 -201 832 -264 102 -18 569 -17 670 0 364 63 536 117 800 248 440 219
801 573 999 979 71 145 84 192 79 278 -9 129 -83 238 -201 293 -69 32 -191 34
-269 4 -95 -36 -139 -84 -211 -233 -136 -277 -327 -485 -594 -645 -167 -101
-404 -187 -625 -229 -119 -22 -485 -25 -598 -4 -407 73 -706 221 -965 478
-115 114 -202 236 -275 388 -71 146 -111 194 -193 235 -67 33 -173 47 -232 31z"/>
</g>
</svg>
